<svg width="436" height="321" viewBox="0 0 436 321" fill="none" xmlns="http://www.w3.org/2000/svg">
<path d="M317.224 29.6567L267.075 58.3134L286.179 122.791L307.672 115.627L342.195 102.681C344.644 101.762 347.192 101.135 349.787 100.81L412.634 92.9543C415.73 92.5674 416.551 88.4619 413.842 86.9139C408.558 83.8943 404.705 78.8812 403.148 72.9975L385.505 6.34633C384.759 3.52874 381.685 2.03042 379.006 3.17855L317.224 29.6567Z" fill="#E51336" stroke="black" stroke-width="4.77612"/>
<path d="M288.354 129.265L258.521 32.8819C257.922 30.9489 256.171 29.6027 254.149 29.5218L197.821 27.2687L135.731 29.6567L106.456 31.3788C98.9618 31.8196 91.5952 33.5194 84.6652 36.4069L80.4284 38.1722C71.1854 42.0235 62.6054 47.3042 55.0027 53.8207L49.7612 58.3134L18.7164 86.9702L4.54939 103.161C3.06325 104.859 2.96879 107.366 4.32289 109.172L30.3954 143.935C30.5693 144.167 30.7638 144.382 30.9767 144.579L58.192 169.701C60.1302 171.49 63.1519 171.369 64.941 169.431L90.0092 142.274C90.2412 142.022 90.4995 141.797 90.7798 141.6L114.239 125.179L104.687 172.94L99.9897 212.863C99.9371 213.31 99.948 213.763 100.022 214.207L101.606 223.71C102.002 226.085 104.103 227.794 106.508 227.697L219.565 223.175C220.924 223.121 222.181 222.507 223.046 221.456C245.731 193.891 288.567 141.38 288.567 139.507V130.677C288.567 130.198 288.495 129.723 288.354 129.265Z" fill="#E51336" stroke="black" stroke-width="4.77612"/>
<path d="M226.478 129.955L176.004 132.058C171.53 132.245 167.194 133.657 163.468 136.141V136.141C162.531 136.765 161.895 137.749 161.71 138.86L157.659 163.166C157.394 164.755 158.085 166.351 159.425 167.244L161.739 168.786C163.5 169.96 165.379 170.949 167.345 171.735V171.735C173.279 174.109 179.612 175.328 186.004 175.328H188.718C189.884 175.328 190.928 174.605 191.337 173.513L197.821 156.224" stroke="black" stroke-width="4.77612"/>
<path d="M139.558 88.7382L147.672 58.3134L154.836 51.1493L165.12 48.2108C169.387 46.9916 173.804 46.3731 178.241 46.3731H195.433L216.925 48.7612L241.487 50.6506C244.701 50.8978 246.753 54.1931 245.555 57.1864L243.194 63.0896L240.806 77.4179L236.03 94.1343L231.254 115.627L223.023 113.981C220.556 113.487 218.046 113.239 215.53 113.239H202.597L183.493 110.851H173.94L155.191 108.976C151.798 108.637 148.497 107.681 145.448 106.157L144.319 105.592C141.9 104.383 140.13 102.176 139.474 99.5523C138.585 95.9986 138.615 92.2775 139.558 88.7382Z" fill="white" stroke="black" stroke-width="4.77612"/>
<path d="M207.373 43.9851L204.985 60.7015L200.209 70.2537L195.433 79.806L188.269 118.015" stroke="black" stroke-width="4.77612"/>
<path d="M158.044 79.7692L158.926 78.4464C159.346 77.8161 160.087 77.4773 160.838 77.5712L177.84 79.6965C178.341 79.759 178.716 80.1844 178.716 80.6887V82.0785C178.716 83.7324 178.401 85.371 177.787 86.9066L174.297 95.6303C174.098 96.1286 173.541 96.3807 173.035 96.2015L166.773 93.9825C164.929 93.3292 163.023 92.8664 161.086 92.6013L155.7 91.8645C155.205 91.7968 154.836 91.3737 154.836 90.8738V90.3665C154.836 86.5948 155.952 82.9074 158.044 79.7692Z" fill="black" stroke="black" stroke-width="4.77612"/>
<path d="M202.323 77.907L204.454 73.6447C204.646 73.2597 205.064 73.0411 205.49 73.1019L220.634 75.2654C221.127 75.3358 221.493 75.7577 221.493 76.2554V80.0458C221.493 83.2694 220.784 86.4536 219.417 89.3731L216.173 96.3046C216.008 96.6561 215.655 96.8806 215.267 96.8806H208.317C205.988 96.8806 203.692 96.3384 201.609 95.297L200.553 94.7689C200.214 94.5995 200 94.2533 200 93.8745V87.7457C200 84.3303 200.795 80.9619 202.323 77.907Z" fill="black" stroke="black" stroke-width="4.77612"/>
<path d="M102.299 242.194L108.143 230.506C108.952 228.888 110.605 227.866 112.414 227.866H144.234C147.248 227.866 149.508 230.623 148.917 233.578L147.672 239.806L145.284 254.134L144.101 260.046C143.299 264.055 142.896 268.134 142.896 272.223V285.179V302.433C142.896 305.693 139.702 307.995 136.609 306.964L134.449 306.244C130.553 304.946 126.473 304.284 122.367 304.284H102.299H86.1458C82.5953 304.284 80.2861 300.547 81.8739 297.372L83.194 294.731L87.9701 282.791L93.1754 270.646C94.4778 267.606 95.4612 264.44 96.1096 261.198L96.5764 258.864C97.2057 255.718 98.122 252.635 99.3138 249.656L102.299 242.194Z" fill="#E51336" stroke="black" stroke-width="4.77612"/>
<path d="M169.164 246.97L167.365 230.781C167.051 227.952 169.266 225.478 172.112 225.478H188.269H203.644C205.836 225.478 207.746 226.969 208.278 229.095L209.668 234.659C209.73 234.906 209.812 235.147 209.912 235.382L214.466 246.007C216.102 249.825 217.379 253.787 218.28 257.842L221.701 273.239L227.041 287.478C228.248 290.695 228.866 294.103 228.866 297.54V301.034C228.866 303.985 226.216 306.23 223.304 305.745L221.946 305.518C217.015 304.697 212.025 304.284 207.027 304.284H202.122C197.684 304.284 193.268 303.665 189.001 302.446L179.143 299.629C178.859 299.548 178.584 299.441 178.319 299.309L171.804 296.051C170.186 295.242 169.164 293.589 169.164 291.78V282.791V263.687V246.97Z" fill="#E51336" stroke="black" stroke-width="4.77612"/>
</svg>
